<svg width="164" height="60" viewBox="0 0 164 60" fill="none" xmlns="http://www.w3.org/2000/svg">
    <path d="M28.9986 31.6337C32.0169 35.2765 36.1802 37.098 41.4884 37.098C43.0843 37.098 44.5761 36.8551 45.9639 36.3694C47.3517 35.8837 48.5659 35.2072 49.6068 34.3398C50.6476 33.4725 51.4629 32.4663 52.0527 31.3214C52.6425 30.1418 52.9374 28.8755 52.9374 27.5224C52.9374 26.1694 52.5904 24.9724 51.8966 23.9316C51.2374 22.8908 50.3527 21.9541 49.2425 21.1214C48.167 20.2888 46.9353 19.5428 45.5476 18.8837C44.1598 18.1898 42.7547 17.5306 41.3323 16.9061C40.0833 16.351 38.869 15.7959 37.6894 15.2408C36.5098 14.651 35.4516 14.0439 34.5149 13.4194C33.6129 12.7602 32.8843 12.0663 32.3292 11.3377C31.8088 10.6092 31.5486 9.79385 31.5486 8.89181C31.5486 6.81018 32.4159 5.19691 34.1506 4.05201C35.8853 2.90711 38.2792 2.33466 41.3323 2.33466C41.9568 2.33466 42.6159 2.3867 43.3098 2.49079C44.0384 2.59487 44.7496 2.78568 45.4435 3.06323C46.1721 3.30609 46.7422 3.55881 47.4014 3.97514L49.0432 2.71871C48.7587 2.51004 48.5694 2.40343 48.1496 2.17854C47.2129 1.65813 46.2935 1.2765 45.3915 1.03364C44.4894 0.756088 43.6741 0.582619 42.9455 0.51323C42.217 0.443843 41.6792 0.409149 41.3323 0.409149C39.1812 0.409149 37.3598 0.669353 35.868 1.18976C34.3761 1.67548 33.1618 2.31731 32.2251 3.11527C31.3231 3.91323 30.6639 4.81528 30.2476 5.8214C29.8312 6.82752 29.6231 7.851 29.6231 8.89181C29.6231 10.1061 29.9353 11.1816 30.5598 12.1183C31.219 13.0551 32.0516 13.9051 33.0578 14.6684C34.0986 15.4316 35.2608 16.1428 36.5445 16.802C37.8629 17.4265 39.1986 18.0337 40.5517 18.6235C41.8353 19.2133 43.1017 19.8204 44.3506 20.4449C45.5996 21.0347 46.7098 21.6939 47.6813 22.4224C48.6874 23.1163 49.4853 23.8796 50.0751 24.7122C50.6996 25.5449 51.0119 26.4816 51.0119 27.5224C51.0119 28.598 50.7517 29.6041 50.2313 30.5408C49.7455 31.4776 49.069 32.2929 48.2017 32.9867C47.369 33.6459 46.3629 34.1837 45.1833 34.6C44.0384 34.9816 42.8068 35.1725 41.4884 35.1725C36.77 35.1725 33.1098 33.5939 30.5078 30.4367C30.3343 30.2286 30.1088 30.1071 29.8312 30.0725C29.5537 30.0378 29.3282 30.1071 29.1547 30.2806C28.9465 30.4541 28.8251 30.6796 28.7904 30.9571C28.7557 31.2347 28.8251 31.4602 28.9986 31.6337Z" fill="white"/>
    <path d="M58.2866 36.1612C58.0091 36.1612 57.7836 36.0745 57.6101 35.901C57.4366 35.6929 57.3499 35.45 57.3499 35.1725V2.28262C57.3499 2.00507 57.4366 1.77956 57.6101 1.60609C57.7836 1.43262 58.0091 1.34589 58.2866 1.34589C58.5642 1.34589 58.7897 1.43262 58.9632 1.60609C59.1713 1.77956 59.2754 2.00507 59.2754 2.28262V35.1725C59.2754 35.8316 58.9458 36.1612 58.2866 36.1612Z" fill="white"/>
    <path d="M86.8331 1.34589C87.1106 1.34589 87.3361 1.43262 87.5096 1.60609C87.7178 1.77956 87.8218 2.00507 87.8218 2.28262V35.1725C87.8218 35.8316 87.4923 36.1612 86.8331 36.1612C86.5555 36.1612 86.33 36.0745 86.1565 35.901C85.9831 35.6929 85.8963 35.45 85.8963 35.1725V16.802H66.6933V35.1725C66.6933 35.8316 66.3637 36.1612 65.7045 36.1612C65.4269 36.1612 65.2014 36.0745 65.0279 35.901C64.8545 35.6929 64.7677 35.45 64.7677 35.1725V2.28262C64.7677 2.00507 64.8545 1.77956 65.0279 1.60609C65.2014 1.43262 65.4269 1.34589 65.7045 1.34589C65.982 1.34589 66.2075 1.43262 66.381 1.60609C66.5892 1.77956 66.6933 2.00507 66.6933 2.28262V14.8765H85.8963V2.28262C85.8963 2.00507 85.9831 1.77956 86.1565 1.60609C86.33 1.43262 86.5555 1.34589 86.8331 1.34589Z" fill="white"/>
    <path d="M121.103 34.8082C121.207 35.0857 121.207 35.3459 121.103 35.5888C120.999 35.8316 120.825 35.9878 120.582 36.0572C120.374 36.1265 120.253 36.1612 120.218 36.1612C119.767 36.1612 119.472 35.9531 119.333 35.5367L115.691 26.898H97.216L93.5732 35.5367C93.3997 35.9531 93.1048 36.1612 92.6885 36.1612C92.6538 36.1612 92.5324 36.1265 92.3242 36.0572C92.0813 35.9878 91.9079 35.8316 91.8038 35.5888C91.6997 35.3459 91.6997 35.0857 91.8038 34.8082L105.543 1.91833C105.716 1.46731 106.028 1.2765 106.479 1.34589C106.896 1.2765 107.191 1.46731 107.364 1.91833L121.103 34.8082ZM114.91 24.9724L106.479 4.72854L97.9967 24.9724H114.91Z" fill="white"/>
    <path d="M139.203 1.34589C139.481 1.34589 139.706 1.43262 139.88 1.60609C140.053 1.77956 140.14 2.00507 140.14 2.28262C140.14 2.56017 140.053 2.80303 139.88 3.01119C139.706 3.18466 139.481 3.2714 139.203 3.2714H127.91V35.2245C127.91 35.5021 127.824 35.7276 127.65 35.901C127.477 36.0745 127.251 36.1612 126.974 36.1612C126.696 36.1612 126.453 36.0745 126.245 35.901C126.072 35.7276 125.985 35.5021 125.985 35.2245V3.2714H114.692C114.414 3.2714 114.189 3.18466 114.015 3.01119C113.842 2.80303 113.755 2.56017 113.755 2.28262C113.755 2.00507 113.842 1.77956 114.015 1.60609C114.189 1.43262 114.414 1.34589 114.692 1.34589H139.203Z" fill="white"/>
    <path d="M145.284 36.1612C145.007 36.1612 144.781 36.0745 144.608 35.901C144.434 35.6929 144.348 35.45 144.348 35.1725V2.28262C144.348 2.00507 144.434 1.77956 144.608 1.60609C144.781 1.43262 145.007 1.34589 145.284 1.34589C145.562 1.34589 145.787 1.43262 145.961 1.60609C146.169 1.77956 146.273 2.00507 146.273 2.28262V35.1725C146.273 35.8316 145.944 36.1612 145.284 36.1612Z" fill="white"/>
    <path d="M16.9913 27.4009L19.5066 30.1107C20.2622 30.9248 21.0951 31.5425 22.0053 31.964C22.9258 32.3966 23.8591 32.6305 24.8052 32.6657C25.7728 32.7017 26.7261 32.5434 27.6651 32.1908C28.6153 31.8279 29.4974 31.2686 30.3114 30.513C31.0808 29.7987 31.6659 28.9754 32.0667 28.0429C32.4778 27.1216 32.6962 26.1715 32.7219 25.1928C32.7579 24.2252 32.6052 23.2667 32.2637 22.3174C31.9334 21.3577 31.4111 20.4931 30.6969 19.7237L28.1817 17.0139C28.0989 16.9247 28.0037 16.8781 27.8962 16.8741C27.7887 16.8701 27.6903 16.9095 27.6011 16.9923L24.9583 19.4454L24.1445 20.1916C23.9667 20.3546 23.9622 20.6334 24.1347 20.8019C24.2936 20.9573 24.546 20.9621 24.7107 20.8128L25.3696 20.2157L27.8578 17.9062L30.078 20.2981C30.7198 20.9895 31.1863 21.7605 31.4776 22.6111C31.7801 23.4513 31.9153 24.3015 31.8833 25.1616C31.8616 26.0328 31.6631 26.8813 31.2879 27.7071C30.9341 28.5337 30.4172 29.2627 29.7369 29.8941C29.0121 30.5669 28.2292 31.0652 27.3881 31.3892C26.5582 31.7028 25.7132 31.8436 24.8532 31.8116C23.9931 31.7796 23.1557 31.5708 22.3411 31.1852C21.5368 30.8107 20.7983 30.2611 20.1255 29.5362L17.9052 27.1443L20.3934 24.8348L21.2569 24.0369C21.4282 23.8787 21.4394 23.6119 21.282 23.4399C21.1232 23.2664 20.8536 23.2554 20.6813 23.4154L19.6725 24.3517L17.0297 26.8049C16.9405 26.8877 16.8883 26.988 16.8731 27.1059C16.8691 27.2134 16.9085 27.3117 16.9913 27.4009Z" fill="white"/>
    <path fill-rule="evenodd" clip-rule="evenodd" d="M16.2501 27.0543L16.2537 27.0262C16.288 26.7597 16.4114 26.5267 16.6048 26.3471L20.2564 22.9576C20.6828 22.5619 21.3499 22.5891 21.7426 23.0182C22.1321 23.4438 22.1044 24.1041 21.6807 24.4956L20.8182 25.2924L18.7878 27.1771L20.5832 29.1114C21.2073 29.7838 21.8816 30.2824 22.6047 30.619L22.6065 30.6199L22.6083 30.6207C23.3501 30.9719 24.1048 31.1588 24.8764 31.1875C25.6501 31.2163 26.4116 31.0904 27.1655 30.8057C27.9248 30.513 28.6403 30.0599 29.3121 29.4363C29.9304 28.8624 30.3955 28.205 30.7138 27.4614L30.7165 27.455L30.7193 27.4487C31.0613 26.6961 31.2395 25.93 31.259 25.146L31.2591 25.1422L31.2592 25.1383C31.2881 24.3611 31.1664 23.5905 30.89 22.8226L30.8884 22.818L30.8868 22.8134C30.6252 22.0496 30.2056 21.3535 29.6203 20.723L27.8249 18.7887L25.7917 20.6759L25.13 21.2756C24.7207 21.6465 24.0932 21.6347 23.6982 21.2485C23.2695 20.8295 23.2805 20.1364 23.7224 19.7313L24.5348 18.9864L27.1762 16.5346C27.3695 16.3552 27.6241 16.239 27.9194 16.25C28.2147 16.261 28.46 16.3958 28.6394 16.589L31.1546 19.2988C31.9249 20.1287 32.4931 21.0668 32.8528 22.1101C33.2187 23.1289 33.3846 24.1644 33.346 25.2126C33.3177 26.2734 33.0807 27.3017 32.6387 28.2934C32.2024 29.307 31.5661 30.2003 30.7362 30.9706C29.8689 31.7757 28.9195 32.3801 27.8879 32.7742L27.8863 32.7748L27.8846 32.7754C26.871 33.1561 25.8353 33.329 24.782 33.2898C23.7464 33.2512 22.7316 32.9951 21.7413 32.5299C20.7505 32.0708 19.8534 31.4022 19.0489 30.5355L16.5336 27.8258C16.3543 27.6326 16.2381 27.3779 16.2491 27.0826L16.2501 27.0543ZM22.0053 31.9639C22.9258 32.3966 23.8591 32.6305 24.8052 32.6657C25.7728 32.7017 26.7261 32.5434 27.6651 32.1908C28.6152 31.8278 29.4973 31.2685 30.3114 30.5129C31.0808 29.7987 31.6659 28.9754 32.0667 28.0429C32.4778 27.1216 32.6962 26.1715 32.7218 25.1928C32.7579 24.2252 32.6051 23.2667 32.2637 22.3174C31.9334 21.3577 31.4111 20.4931 30.6969 19.7237L28.1816 17.0139C28.0988 16.9247 28.0037 16.8781 27.8962 16.8741C27.7887 16.8701 27.6903 16.9095 27.6011 16.9923L24.9582 19.4454L24.1444 20.1916C23.9667 20.3545 23.9622 20.6334 24.1347 20.8019C24.2936 20.9573 24.546 20.962 24.7107 20.8128L25.3696 20.2157L27.8578 17.9062L30.078 20.2981C30.7197 20.9895 31.1863 21.7605 31.4776 22.6111C31.7801 23.4513 31.9153 24.3015 31.8833 25.1616C31.8616 26.0328 31.6631 26.8813 31.2879 27.7071C30.9341 28.5337 30.4171 29.2626 29.7369 29.894C29.0121 30.5668 28.2291 31.0652 27.3881 31.3892C26.5582 31.7028 25.7132 31.8436 24.8531 31.8116C23.9931 31.7796 23.1557 31.5708 22.3411 31.1852C21.5368 30.8107 20.7983 30.2611 20.1255 29.5362L17.9052 27.1443L20.3934 24.8347L21.2569 24.0369C21.4282 23.8787 21.4394 23.6118 21.2819 23.4398C21.1232 23.2664 20.8536 23.2554 20.6813 23.4153L17.0297 26.8048C16.9405 26.8876 16.8883 26.988 16.8731 27.1058C16.8691 27.2134 16.9085 27.3117 16.9913 27.4009L19.5066 30.1107C20.2622 30.9247 21.0951 31.5425 22.0053 31.9639Z" fill="white"/>
    <path fill-rule="evenodd" clip-rule="evenodd" d="M50.13 7.43751C51.3573 7.43751 52.3523 6.44252 52.3523 5.21515C52.3523 3.98777 51.3573 2.99278 50.13 2.99278C48.9026 2.99278 47.9076 3.98777 47.9076 5.21515C47.9076 6.44252 48.9026 7.43751 50.13 7.43751ZM50.13 8.27016C51.8172 8.27016 53.185 6.90239 53.185 5.21515C53.185 3.5279 51.8172 2.16013 50.13 2.16013C48.4427 2.16013 47.075 3.5279 47.075 5.21515C47.075 6.90239 48.4427 8.27016 50.13 8.27016Z" fill="white"/>
    <path d="M51.7186 5.21517C51.7186 6.09253 51.0074 6.80378 50.13 6.80378C49.2526 6.80378 48.5414 6.09253 48.5414 5.21517C48.5414 4.3378 49.2526 3.62656 50.13 3.62656C51.0074 3.62656 51.7186 4.3378 51.7186 5.21517Z" fill="white"/>
    <g filter="url(#filter0_f_86_177)">
    <ellipse cx="82.4082" cy="43.0103" rx="65.7009" ry="0.710196" fill="#282458" fill-opacity="0.74"/>
    </g>
    <path d="M137.55 38.9633V41.6712H136.27V43.7205H133.305V41.6712H127.487V38.9633L131.567 30.9127H134.714L130.634 38.9633H133.305V36.2188H136.27V38.9633H137.55Z" fill="#FF5C5C"/>
    <path d="M140.296 43.9766C139.345 43.9766 138.558 43.1899 138.558 42.2384C138.558 41.287 139.345 40.5002 140.296 40.5002C141.248 40.5002 142.034 41.287 142.034 42.2384C142.034 43.1899 141.248 43.9766 140.296 43.9766Z" fill="#FF5C5C"/>
    <path d="M148.072 43.9766C144.761 43.9766 142.858 41.2687 142.858 37.3166C142.858 33.3645 144.761 30.6566 148.072 30.6566C151.384 30.6566 153.287 33.3645 153.287 37.3166C153.287 41.2687 151.384 43.9766 148.072 43.9766ZM148.072 41.1223C149.609 41.1223 150.36 39.7867 150.36 37.3166C150.36 34.8465 149.609 33.5109 148.072 33.5109C146.535 33.5109 145.785 34.8465 145.785 37.3166C145.785 39.7867 146.535 41.1223 148.072 41.1223Z" fill="#FF5C5C"/>
    <defs>
    <filter id="filter0_f_86_177" x="0.907275" y="26.5001" width="163.002" height="33.0204" filterUnits="userSpaceOnUse" color-interpolation-filters="sRGB">
    <feFlood flood-opacity="0" result="BackgroundImageFix"/>
    <feBlend mode="normal" in="SourceGraphic" in2="BackgroundImageFix" result="shape"/>
    <feGaussianBlur stdDeviation="7.9" result="effect1_foregroundBlur_86_177"/>
    </filter>
    </defs>
    </svg>
    