<svg width="392" height="135" viewBox="0 0 392 135" fill="none" xmlns="http://www.w3.org/2000/svg">
    <path d="M50.001 85.3292C58.2495 95.2843 69.6267 100.262 84.1327 100.262C88.494 100.262 92.5708 99.5982 96.3632 98.2708C100.156 96.9435 103.474 95.0947 106.318 92.7244C109.163 90.3542 111.391 87.6047 113.002 84.4759C114.614 81.2524 115.42 77.7918 115.42 74.0942C115.42 70.3966 114.472 67.1257 112.576 64.2813C110.774 61.437 108.357 58.8772 105.323 56.6017C102.384 54.3263 99.0179 52.2879 95.2255 50.4865C91.4331 48.5903 87.5933 46.7889 83.7061 45.0823C80.2929 43.5653 76.9745 42.0483 73.751 40.5314C70.5274 38.9196 67.6357 37.2604 65.0758 35.5538C62.6108 33.7524 60.6198 31.8562 59.1028 29.8652C57.6806 27.8742 56.9696 25.6462 56.9696 23.1811C56.9696 17.4925 59.3398 13.0838 64.0803 9.95508C68.8208 6.82634 75.3628 5.26197 83.7061 5.26197C85.4126 5.26197 87.214 5.40418 89.1102 5.68862C91.1013 5.97304 93.0449 6.4945 94.9411 7.25298C96.9321 7.91665 98.4902 8.60727 100.292 9.74499L104.778 6.31149C104.001 5.74124 103.483 5.44989 102.336 4.83532C99.7764 3.41317 97.2639 2.37025 94.7989 1.70658C92.3338 0.948102 90.1058 0.474051 88.1147 0.284427C86.1237 0.094809 84.6542 0 83.7061 0C77.8278 0 72.8503 0.711076 68.7734 2.13323C64.6966 3.46057 61.3782 5.21456 58.8184 7.3952C56.3533 9.57583 54.5519 12.0409 53.4142 14.7904C52.2765 17.5399 51.7076 20.3368 51.7076 23.1811C51.7076 26.4995 52.5609 29.4386 54.2675 31.9985C56.0689 34.5583 58.3443 36.8812 61.0938 38.967C63.9381 41.0528 67.1143 42.9964 70.6222 44.7978C74.225 46.5044 77.8752 48.1636 81.5728 49.7754C85.0808 51.3872 88.5414 53.0463 91.9545 54.7529C95.3677 56.3647 98.4016 58.1661 101.056 60.1571C103.806 62.0533 105.986 64.1391 107.598 66.4146C109.305 68.69 110.158 71.2499 110.158 74.0942C110.158 77.0333 109.447 79.7828 108.025 82.3427C106.698 84.9026 104.849 87.1306 102.478 89.0268C100.203 90.8282 97.4535 92.2978 94.23 93.4355C91.1013 94.4784 87.7355 94.9999 84.1327 94.9999C71.2385 94.9999 61.236 90.686 54.1253 82.0583C53.6512 81.4894 53.0349 81.1576 52.2765 81.0628C51.518 80.9679 50.9017 81.1576 50.4277 81.6316C49.8588 82.1057 49.527 82.7219 49.4321 83.4804C49.3373 84.2389 49.527 84.8552 50.001 85.3292Z" fill="#5040B0"/>
    <path d="M130.038 97.702C129.28 97.702 128.664 97.4649 128.189 96.9909C127.715 96.422 127.478 95.7583 127.478 94.9999V5.11976C127.478 4.36127 127.715 3.745 128.189 3.27095C128.664 2.7969 129.28 2.55988 130.038 2.55988C130.797 2.55988 131.413 2.7969 131.887 3.27095C132.456 3.745 132.74 4.36127 132.74 5.11976V94.9999C132.74 96.8013 131.84 97.702 130.038 97.702Z" fill="#5040B0"/>
    <path d="M208.049 2.55988C208.807 2.55988 209.424 2.7969 209.898 3.27095C210.467 3.745 210.751 4.36127 210.751 5.11976V94.9999C210.751 96.8013 209.85 97.702 208.049 97.702C207.29 97.702 206.674 97.4649 206.2 96.9909C205.726 96.422 205.489 95.7583 205.489 94.9999V44.7978H153.012V94.9999C153.012 96.8013 152.111 97.702 150.31 97.702C149.551 97.702 148.935 97.4649 148.461 96.9909C147.987 96.422 147.75 95.7583 147.75 94.9999V5.11976C147.75 4.36127 147.987 3.745 148.461 3.27095C148.935 2.7969 149.551 2.55988 150.31 2.55988C151.068 2.55988 151.684 2.7969 152.158 3.27095C152.727 3.745 153.012 4.36127 153.012 5.11976V39.5359H205.489V5.11976C205.489 4.36127 205.726 3.745 206.2 3.27095C206.674 2.7969 207.29 2.55988 208.049 2.55988Z" fill="#5040B0"/>
    <path d="M301.7 94.0044C301.984 94.7628 301.984 95.4739 301.7 96.1376C301.416 96.8013 300.942 97.2279 300.278 97.4175C299.709 97.6071 299.377 97.702 299.282 97.702C298.05 97.702 297.244 97.1331 296.865 95.9954L286.91 72.3876H236.423L226.468 95.9954C225.994 97.1331 225.188 97.702 224.05 97.702C223.956 97.702 223.624 97.6071 223.055 97.4175C222.391 97.2279 221.917 96.8013 221.633 96.1376C221.348 95.4739 221.348 94.7628 221.633 94.0044L259.178 4.12424C259.652 2.89171 260.505 2.37025 261.737 2.55988C262.875 2.37025 263.681 2.89171 264.155 4.12424L301.7 94.0044ZM284.776 67.1257L261.737 11.8039L238.556 67.1257H284.776Z" fill="#5040B0"/>
    <path d="M351.164 2.55988C351.923 2.55988 352.539 2.7969 353.013 3.27095C353.487 3.745 353.724 4.36127 353.724 5.11976C353.724 5.87823 353.487 6.5419 353.013 7.11077C352.539 7.58482 351.923 7.82185 351.164 7.82185H320.304V95.1421C320.304 95.9006 320.067 96.5168 319.592 96.9909C319.118 97.4649 318.502 97.702 317.744 97.702C316.985 97.702 316.322 97.4649 315.753 96.9909C315.279 96.5168 315.042 95.9006 315.042 95.1421V7.82185H284.181C283.422 7.82185 282.806 7.58482 282.332 7.11077C281.858 6.5419 281.621 5.87823 281.621 5.11976C281.621 4.36127 281.858 3.745 282.332 3.27095C282.806 2.7969 283.422 2.55988 284.181 2.55988H351.164Z" fill="#5040B0"/>
    <path d="M367.782 97.702C367.024 97.702 366.408 97.4649 365.934 96.9909C365.46 96.422 365.223 95.7583 365.223 94.9999V5.11976C365.223 4.36127 365.46 3.745 365.934 3.27095C366.408 2.7969 367.024 2.55988 367.782 2.55988C368.541 2.55988 369.157 2.7969 369.631 3.27095C370.2 3.745 370.484 4.36127 370.484 5.11976V94.9999C370.484 96.8013 369.584 97.702 367.782 97.702Z" fill="#5040B0"/>
    <path d="M17.1883 73.7623L24.0618 81.1674C26.1267 83.392 28.4028 85.0802 30.8902 86.2319C33.4058 87.4141 35.9563 88.0534 38.5417 88.1496C41.1859 88.2481 43.7911 87.8155 46.3571 86.8518C48.9537 85.8599 51.3642 84.3315 53.5888 82.2666C55.6915 80.3149 57.2904 78.0649 58.3856 75.5166C59.5091 72.9988 60.1059 70.4026 60.176 67.7279C60.2745 65.0837 59.8571 62.4644 58.924 59.8701C58.0213 57.2475 56.5941 54.8848 54.6423 52.7821L47.7688 45.377C47.5425 45.1332 47.2824 45.0058 46.9886 44.9949C46.6948 44.9839 46.426 45.0916 46.1822 45.3179L38.9599 52.0218L36.736 54.0608C36.2503 54.5062 36.2381 55.2681 36.7094 55.7288C37.1437 56.1533 37.8335 56.1663 38.2835 55.7585L40.0842 54.1267L46.8836 47.8154L52.951 54.352C54.7048 56.2414 55.9797 58.3483 56.7758 60.6727C57.6024 62.9689 57.9719 65.2922 57.8844 67.6426C57.8252 70.0235 57.2828 72.3423 56.2573 74.5989C55.2906 76.8577 53.8778 78.8499 52.0189 80.5753C50.0381 82.414 47.8985 83.7759 45.6002 84.6612C43.3323 85.5183 41.0232 85.903 38.6727 85.8155C36.3223 85.728 34.0341 85.1574 31.8079 84.1036C29.61 83.0804 27.5918 81.5783 25.7531 79.5975L19.6857 73.0609L26.4852 66.7495L28.8451 64.5693C29.3131 64.1369 29.3437 63.4076 28.9135 62.9375C28.4798 62.4636 27.743 62.4335 27.2721 62.8706L24.5153 65.4295L17.2931 72.1333C17.0493 72.3596 16.9067 72.6338 16.8652 72.9559C16.8543 73.2497 16.962 73.5185 17.1883 73.7623Z" fill="#5040B0"/>
    <path fill-rule="evenodd" clip-rule="evenodd" d="M15.1623 72.815L15.1722 72.7382C15.2658 72.0098 15.603 71.3731 16.1316 70.8824L26.1106 61.6198C27.2758 60.5382 29.0988 60.6126 30.1721 61.7854C31.2364 62.9484 31.1607 64.7529 30.0027 65.8227L27.6458 68.0002L22.0971 73.1506L27.0035 78.4364C28.7091 80.274 30.5517 81.6365 32.5278 82.5565L32.5327 82.5588L32.5376 82.5611C34.5649 83.5207 36.6272 84.0316 38.7358 84.1101C40.8501 84.1888 42.9312 83.8445 44.9913 83.0667C47.0663 82.2667 49.0218 81.0284 50.8575 79.3245C52.5472 77.7561 53.8183 75.9595 54.688 73.9274L54.6954 73.91L54.7032 73.8928C55.6378 71.8362 56.1246 69.7425 56.1779 67.6001L56.1782 67.5896L56.1785 67.5791C56.2576 65.4551 55.9251 63.3493 55.1696 61.2507L55.1651 61.2382L55.1608 61.2256C54.4459 59.1382 53.2993 57.2361 51.6998 55.5129L46.7934 50.2271L41.2373 55.3844L39.429 57.023C38.3103 58.0368 36.5957 58.0044 35.516 56.9491C34.3445 55.804 34.3747 53.91 35.5823 52.8028L37.8023 50.7673L45.0208 44.067C45.5488 43.5769 46.2447 43.2594 47.0517 43.2894C47.8587 43.3195 48.529 43.6879 49.0191 44.2159L55.8927 51.621C57.9979 53.889 59.5504 56.4526 60.5334 59.3035C61.5334 62.0879 61.9868 64.9176 61.8813 67.7821C61.8041 70.6809 61.1562 73.491 59.9485 76.2012C58.7562 78.9712 57.0174 81.4122 54.7494 83.5174C52.3793 85.7173 49.7846 87.3692 46.9657 88.446L46.9612 88.4477L46.9566 88.4494C44.1865 89.4897 41.3563 89.9621 38.4778 89.855C35.6479 89.7496 32.8746 89.0496 30.1683 87.7784C27.4607 86.524 25.0091 84.6969 22.8106 82.3283L15.937 74.9232C15.4469 74.3952 15.1294 73.6993 15.1594 72.8923L15.1623 72.815ZM30.8897 86.2318C33.4053 87.4141 35.9558 88.0533 38.5413 88.1496C41.1855 88.248 43.7906 87.8154 46.3567 86.8518C48.9532 85.8599 51.3638 84.3315 53.5884 82.2666C55.6911 80.3148 57.29 78.0648 58.3852 75.5166C59.5086 72.9988 60.1054 70.4025 60.1756 67.7279C60.274 65.0837 59.8567 62.4644 58.9235 59.87C58.0209 57.2474 56.5937 54.8847 54.6419 52.782L47.7683 45.3769C47.542 45.1331 47.282 45.0057 46.9882 44.9948C46.6944 44.9839 46.4256 45.0915 46.1818 45.3178L38.9595 52.0217L36.7356 54.0607C36.2498 54.5061 36.2376 55.268 36.7089 55.7287C37.1433 56.1532 37.833 56.1663 38.2831 55.7584L40.0837 54.1267L46.8832 47.8153L52.9506 54.3519C54.7044 56.2413 55.9793 58.3482 56.7754 60.6727C57.6019 62.9689 57.9715 65.2922 57.884 67.6426C57.8247 70.0234 57.2824 72.3422 56.2569 74.5988C55.2902 76.8577 53.8774 78.8498 52.0185 80.5753C50.0377 82.4139 47.8981 83.7759 45.5997 84.6612C43.3319 85.5182 41.0227 85.903 38.6723 85.8155C36.3219 85.728 34.0336 85.1573 31.8075 84.1036C29.6096 83.0803 27.5913 81.5782 25.7527 79.5974L19.6853 73.0608L26.4848 66.7494L28.8447 64.5692C29.3126 64.1368 29.3432 63.4075 28.9131 62.9375C28.4793 62.4635 27.7425 62.4335 27.2716 62.8706L17.2926 72.1332C17.0488 72.3595 16.9062 72.6337 16.8648 72.9558C16.8539 73.2496 16.9616 73.5184 17.1878 73.7622L24.0614 81.1673C26.1263 83.3919 28.4024 85.0801 30.8897 86.2318Z" fill="#5040B0"/>
    <path fill-rule="evenodd" clip-rule="evenodd" d="M107.748 19.2069C111.102 19.2069 113.821 16.4878 113.821 13.1337C113.821 9.77954 111.102 7.06048 107.748 7.06048C104.394 7.06048 101.675 9.77954 101.675 13.1337C101.675 16.4878 104.394 19.2069 107.748 19.2069ZM107.748 21.4823C112.359 21.4823 116.097 17.7445 116.097 13.1337C116.097 8.52285 112.359 4.78503 107.748 4.78503C103.137 4.78503 99.3997 8.52285 99.3997 13.1337C99.3997 17.7445 103.137 21.4823 107.748 21.4823Z" fill="#5040B0"/>
    <path d="M112.09 13.1338C112.09 15.5314 110.146 17.4751 107.748 17.4751C105.351 17.4751 103.407 15.5314 103.407 13.1338C103.407 10.7361 105.351 8.79248 107.748 8.79248C110.146 8.79248 112.09 10.7361 112.09 13.1338Z" fill="#5040B0"/>
    <g filter="url(#filter0_f_71_144)">
    <ellipse cx="195.957" cy="116.419" rx="179.545" ry="1.9408" fill="#282458" fill-opacity="0.74"/>
    </g>
    <path d="M349.597 102.918V108.246H347.077V112.278H341.245V108.246H329.797V102.918L337.825 87.0779H344.017L335.989 102.918H341.245V97.5179H347.077V102.918H349.597ZM355 112.782C353.128 112.782 351.58 111.234 351.58 109.362C351.58 107.49 353.128 105.942 355 105.942C356.872 105.942 358.42 107.49 358.42 109.362C358.42 111.234 356.872 112.782 355 112.782ZM370.3 112.782C363.784 112.782 360.04 107.454 360.04 99.6779C360.04 91.9019 363.784 86.5739 370.3 86.5739C376.816 86.5739 380.56 91.9019 380.56 99.6779C380.56 107.454 376.816 112.782 370.3 112.782ZM370.3 107.166C373.324 107.166 374.8 104.538 374.8 99.6779C374.8 94.8179 373.324 92.1899 370.3 92.1899C367.276 92.1899 365.8 94.8179 365.8 99.6779C365.8 104.538 367.276 107.166 370.3 107.166Z" fill="#FF5C5C"/>
    <defs>
    <filter id="filter0_f_71_144" x="0.611621" y="98.6779" width="390.69" height="35.4816" filterUnits="userSpaceOnUse" color-interpolation-filters="sRGB">
    <feFlood flood-opacity="0" result="BackgroundImageFix"/>
    <feBlend mode="normal" in="SourceGraphic" in2="BackgroundImageFix" result="shape"/>
    <feGaussianBlur stdDeviation="7.9" result="effect1_foregroundBlur_71_144"/>
    </filter>
    </defs>
    </svg>
    